<svg width="633" height="351" viewBox="0 0 633 351" fill="none" xmlns="http://www.w3.org/2000/svg">
<g clip-path="url(#clip0_2_35)">
<rect width="633" height="56" fill="white" fill-opacity="0.05"/>
<path d="M28 21L21 28L28 35M21 28H35" stroke="white" stroke-opacity="0.5" stroke-width="1.5" stroke-linecap="round" stroke-linejoin="round"/>
<path d="M61 28H75M68 35L75 28L68 21" stroke="white" stroke-opacity="0.5" stroke-width="1.5" stroke-linecap="round" stroke-linejoin="round"/>
<path d="M117 28C117 29.78 116.472 31.5201 115.483 33.0001C114.494 34.4802 113.089 35.6337 111.444 36.3149C109.8 36.9961 107.99 37.1743 106.244 36.8271C104.498 36.4798 102.895 35.6226 101.636 34.364C100.377 33.1053 99.5202 31.5016 99.1729 29.7558C98.8257 28.01 99.0039 26.2004 99.6851 24.5558C100.366 22.9113 101.52 21.5057 103 20.5168C104.48 19.5278 106.22 19 108 19C110.52 19 112.93 20 114.74 21.74L117 24M112 24H117V19" stroke="white" stroke-opacity="0.5" stroke-width="1.5" stroke-linecap="round" stroke-linejoin="round"/>
<rect x="136" y="8" width="365" height="40" rx="8" fill="white" fill-opacity="0.1"/>
<path d="M154.247 28.9062V33.5H153.074V23.3182H154.247V27.0568H154.347C154.526 26.6624 154.794 26.3492 155.152 26.1172C155.513 25.8819 155.994 25.7642 156.594 25.7642C157.114 25.7642 157.57 25.8686 157.961 26.0774C158.352 26.2829 158.655 26.5994 158.871 27.027C159.089 27.4512 159.199 27.9915 159.199 28.6477V33.5H158.026V28.7273C158.026 28.1207 157.868 27.6518 157.553 27.3203C157.242 26.9856 156.809 26.8182 156.256 26.8182C155.871 26.8182 155.527 26.8994 155.222 27.0618C154.92 27.2242 154.681 27.4612 154.506 27.7727C154.333 28.0843 154.247 28.4621 154.247 28.9062ZM164.666 25.8636V26.858H160.709V25.8636H164.666ZM161.862 24.0341H163.036V31.3125C163.036 31.6439 163.084 31.8925 163.18 32.0582C163.279 32.2206 163.405 32.33 163.558 32.3864C163.713 32.4394 163.878 32.4659 164.05 32.4659C164.179 32.4659 164.285 32.4593 164.368 32.446C164.451 32.4295 164.517 32.4162 164.567 32.4062L164.806 33.4602C164.726 33.4901 164.615 33.5199 164.472 33.5497C164.33 33.5829 164.149 33.5994 163.931 33.5994C163.599 33.5994 163.274 33.5282 162.956 33.3857C162.641 33.2431 162.379 33.026 162.171 32.7344C161.965 32.4427 161.862 32.0748 161.862 31.6307V24.0341ZM169.752 25.8636V26.858H165.795V25.8636H169.752ZM166.948 24.0341H168.122V31.3125C168.122 31.6439 168.17 31.8925 168.266 32.0582C168.365 32.2206 168.491 32.33 168.644 32.3864C168.799 32.4394 168.963 32.4659 169.136 32.4659C169.265 32.4659 169.371 32.4593 169.454 32.446C169.537 32.4295 169.603 32.4162 169.653 32.4062L169.892 33.4602C169.812 33.4901 169.701 33.5199 169.558 33.5497C169.416 33.5829 169.235 33.5994 169.017 33.5994C168.685 33.5994 168.36 33.5282 168.042 33.3857C167.727 33.2431 167.465 33.026 167.257 32.7344C167.051 32.4427 166.948 32.0748 166.948 31.6307V24.0341ZM171.517 36.3636V25.8636H172.651V27.0767H172.79C172.876 26.9441 172.995 26.7751 173.148 26.5696C173.304 26.3608 173.526 26.1752 173.814 26.0128C174.106 25.8471 174.5 25.7642 174.997 25.7642C175.64 25.7642 176.207 25.925 176.698 26.2464C177.188 26.5679 177.571 27.0237 177.846 27.6136C178.121 28.2036 178.259 28.8996 178.259 29.7017C178.259 30.5104 178.121 31.2114 177.846 31.8047C177.571 32.3946 177.19 32.852 176.703 33.1768C176.215 33.4983 175.654 33.6591 175.017 33.6591C174.527 33.6591 174.134 33.5779 173.839 33.4155C173.544 33.2498 173.317 33.0625 173.158 32.8537C172.999 32.6416 172.876 32.4659 172.79 32.3267H172.691V36.3636H171.517ZM172.671 29.6818C172.671 30.2585 172.755 30.7673 172.924 31.2081C173.093 31.6456 173.34 31.9886 173.665 32.2372C173.99 32.4825 174.387 32.6051 174.858 32.6051C175.349 32.6051 175.758 32.4759 176.086 32.2173C176.418 31.9555 176.666 31.6042 176.832 31.1634C177.001 30.7192 177.085 30.2254 177.085 29.6818C177.085 29.1449 177.003 28.661 176.837 28.2301C176.674 27.7959 176.427 27.4529 176.096 27.201C175.768 26.9458 175.355 26.8182 174.858 26.8182C174.381 26.8182 173.98 26.9392 173.655 27.1811C173.33 27.4197 173.085 27.7545 172.919 28.1854C172.753 28.6129 172.671 29.1117 172.671 29.6818ZM185.458 27.5739L184.404 27.8722C184.337 27.6965 184.24 27.5258 184.11 27.3601C183.984 27.1911 183.812 27.0518 183.593 26.9425C183.374 26.8331 183.094 26.7784 182.753 26.7784C182.286 26.7784 181.896 26.8861 181.585 27.1016C181.276 27.3137 181.122 27.5838 181.122 27.9119C181.122 28.2036 181.228 28.4339 181.441 28.603C181.653 28.772 181.984 28.9129 182.435 29.0256L183.568 29.304C184.251 29.4697 184.76 29.7232 185.095 30.0646C185.429 30.4027 185.597 30.8385 185.597 31.3722C185.597 31.8097 185.471 32.2008 185.219 32.5455C184.97 32.8902 184.622 33.1619 184.175 33.3608C183.727 33.5597 183.207 33.6591 182.614 33.6591C181.835 33.6591 181.19 33.4901 180.68 33.152C180.169 32.8139 179.846 32.3201 179.71 31.6705L180.824 31.392C180.93 31.803 181.131 32.1113 181.426 32.3168C181.724 32.5223 182.113 32.625 182.594 32.625C183.141 32.625 183.575 32.509 183.896 32.277C184.221 32.0417 184.384 31.7599 184.384 31.4318C184.384 31.1667 184.291 30.9446 184.105 30.7656C183.92 30.5833 183.635 30.4474 183.25 30.358L181.977 30.0597C181.278 29.8939 180.764 29.6371 180.436 29.2891C180.111 28.9377 179.949 28.4986 179.949 27.9716C179.949 27.5407 180.07 27.1596 180.312 26.8281C180.557 26.4967 180.89 26.2365 181.311 26.0476C181.735 25.8587 182.216 25.7642 182.753 25.7642C183.509 25.7642 184.102 25.9299 184.533 26.2614C184.967 26.5928 185.275 27.0303 185.458 27.5739ZM188.218 33.5795C187.973 33.5795 187.762 33.4917 187.587 33.3161C187.411 33.1404 187.323 32.9299 187.323 32.6847C187.323 32.4394 187.411 32.2289 187.587 32.0533C187.762 31.8776 187.973 31.7898 188.218 31.7898C188.463 31.7898 188.674 31.8776 188.849 32.0533C189.025 32.2289 189.113 32.4394 189.113 32.6847C189.113 32.8471 189.071 32.9962 188.989 33.1321C188.909 33.268 188.801 33.3774 188.665 33.4602C188.533 33.5398 188.384 33.5795 188.218 33.5795ZM188.218 27.9119C187.973 27.9119 187.762 27.8241 187.587 27.6484C187.411 27.4728 187.323 27.2623 187.323 27.017C187.323 26.7718 187.411 26.5613 187.587 26.3857C187.762 26.21 187.973 26.1222 188.218 26.1222C188.463 26.1222 188.674 26.21 188.849 26.3857C189.025 26.5613 189.113 26.7718 189.113 27.017C189.113 27.1795 189.071 27.3286 188.989 27.4645C188.909 27.6004 188.801 27.7098 188.665 27.7926C188.533 27.8722 188.384 27.9119 188.218 27.9119ZM194.818 22.8409L191.537 35.0312H190.463L193.744 22.8409H194.818ZM199.808 22.8409L196.527 35.0312H195.453L198.734 22.8409H199.808ZM203.446 33.679C202.962 33.679 202.523 33.5878 202.129 33.4055C201.734 33.2199 201.421 32.9531 201.189 32.6051C200.957 32.2538 200.841 31.8295 200.841 31.3324C200.841 30.8949 200.927 30.5402 201.099 30.2685C201.272 29.9934 201.502 29.7779 201.79 29.6222C202.079 29.4664 202.397 29.3504 202.745 29.2741C203.096 29.1946 203.449 29.1316 203.804 29.0852C204.268 29.0256 204.644 28.9808 204.933 28.951C205.224 28.9179 205.436 28.8632 205.569 28.7869C205.705 28.7107 205.773 28.5781 205.773 28.3892V28.3494C205.773 27.8589 205.638 27.4777 205.37 27.206C205.105 26.9342 204.702 26.7983 204.162 26.7983C203.602 26.7983 203.163 26.9209 202.844 27.1662C202.526 27.4115 202.303 27.6733 202.173 27.9517L201.06 27.554C201.259 27.09 201.524 26.7287 201.855 26.4702C202.19 26.2083 202.554 26.026 202.949 25.9233C203.347 25.8172 203.738 25.7642 204.122 25.7642C204.367 25.7642 204.649 25.794 204.967 25.8537C205.289 25.91 205.599 26.0277 205.897 26.2067C206.199 26.3857 206.449 26.6558 206.648 27.017C206.847 27.3783 206.946 27.8622 206.946 28.4688V33.5H205.773V32.4659H205.713C205.634 32.6316 205.501 32.8089 205.315 32.9979C205.13 33.1868 204.883 33.3475 204.575 33.4801C204.266 33.6127 203.89 33.679 203.446 33.679ZM203.625 32.625C204.089 32.625 204.48 32.5339 204.798 32.3516C205.12 32.1693 205.362 31.9339 205.524 31.6456C205.69 31.3572 205.773 31.054 205.773 30.7358V29.6619C205.723 29.7216 205.614 29.7763 205.445 29.826C205.279 29.8724 205.087 29.9138 204.868 29.9503C204.652 29.9834 204.442 30.0133 204.237 30.0398C204.034 30.063 203.87 30.0829 203.744 30.0994C203.439 30.1392 203.154 30.2038 202.889 30.2933C202.627 30.3795 202.415 30.5104 202.253 30.6861C202.094 30.8584 202.014 31.0937 202.014 31.392C202.014 31.7997 202.165 32.108 202.467 32.3168C202.772 32.5223 203.158 32.625 203.625 32.625ZM209.088 36.3636V25.8636H210.221V27.0767H210.36C210.446 26.9441 210.566 26.7751 210.718 26.5696C210.874 26.3608 211.096 26.1752 211.384 26.0128C211.676 25.8471 212.07 25.7642 212.568 25.7642C213.211 25.7642 213.777 25.925 214.268 26.2464C214.758 26.5679 215.141 27.0237 215.416 27.6136C215.691 28.2036 215.829 28.8996 215.829 29.7017C215.829 30.5104 215.691 31.2114 215.416 31.8047C215.141 32.3946 214.76 32.852 214.273 33.1768C213.786 33.4983 213.224 33.6591 212.588 33.6591C212.097 33.6591 211.704 33.5779 211.409 33.4155C211.114 33.2498 210.887 33.0625 210.728 32.8537C210.569 32.6416 210.446 32.4659 210.36 32.3267H210.261V36.3636H209.088ZM210.241 29.6818C210.241 30.2585 210.325 30.7673 210.494 31.2081C210.664 31.6456 210.91 31.9886 211.235 32.2372C211.56 32.4825 211.958 32.6051 212.428 32.6051C212.919 32.6051 213.328 32.4759 213.656 32.2173C213.988 31.9555 214.236 31.6042 214.402 31.1634C214.571 30.7192 214.656 30.2254 214.656 29.6818C214.656 29.1449 214.573 28.661 214.407 28.2301C214.245 27.7959 213.998 27.4529 213.666 27.201C213.338 26.9458 212.926 26.8182 212.428 26.8182C211.951 26.8182 211.55 26.9392 211.225 27.1811C210.901 27.4197 210.655 27.7545 210.49 28.1854C210.324 28.6129 210.241 29.1117 210.241 29.6818ZM217.619 36.3636V25.8636H218.752V27.0767H218.892C218.978 26.9441 219.097 26.7751 219.249 26.5696C219.405 26.3608 219.627 26.1752 219.916 26.0128C220.207 25.8471 220.602 25.7642 221.099 25.7642C221.742 25.7642 222.309 25.925 222.799 26.2464C223.29 26.5679 223.673 27.0237 223.948 27.6136C224.223 28.2036 224.36 28.8996 224.36 29.7017C224.36 30.5104 224.223 31.2114 223.948 31.8047C223.673 32.3946 223.291 32.852 222.804 33.1768C222.317 33.4983 221.755 33.6591 221.119 33.6591C220.628 33.6591 220.235 33.5779 219.941 33.4155C219.646 33.2498 219.419 33.0625 219.259 32.8537C219.1 32.6416 218.978 32.4659 218.892 32.3267H218.792V36.3636H217.619ZM218.772 29.6818C218.772 30.2585 218.857 30.7673 219.026 31.2081C219.195 31.6456 219.442 31.9886 219.767 32.2372C220.091 32.4825 220.489 32.6051 220.96 32.6051C221.45 32.6051 221.86 32.4759 222.188 32.2173C222.519 31.9555 222.768 31.6042 222.933 31.1634C223.102 30.7192 223.187 30.2254 223.187 29.6818C223.187 29.1449 223.104 28.661 222.938 28.2301C222.776 27.7959 222.529 27.4529 222.198 27.201C221.869 26.9458 221.457 26.8182 220.96 26.8182C220.482 26.8182 220.081 26.9392 219.757 27.1811C219.432 27.4197 219.186 27.7545 219.021 28.1854C218.855 28.6129 218.772 29.1117 218.772 29.6818ZM227.005 33.5795C226.76 33.5795 226.549 33.4917 226.374 33.3161C226.198 33.1404 226.11 32.9299 226.11 32.6847C226.11 32.4394 226.198 32.2289 226.374 32.0533C226.549 31.8776 226.76 31.7898 227.005 31.7898C227.25 31.7898 227.461 31.8776 227.637 32.0533C227.812 32.2289 227.9 32.4394 227.9 32.6847C227.9 32.8471 227.859 32.9962 227.776 33.1321C227.696 33.268 227.588 33.3774 227.453 33.4602C227.32 33.5398 227.171 33.5795 227.005 33.5795ZM232.253 33.679C231.769 33.679 231.33 33.5878 230.935 33.4055C230.541 33.2199 230.228 32.9531 229.996 32.6051C229.764 32.2538 229.648 31.8295 229.648 31.3324C229.648 30.8949 229.734 30.5402 229.906 30.2685C230.078 29.9934 230.309 29.7779 230.597 29.6222C230.885 29.4664 231.204 29.3504 231.552 29.2741C231.903 29.1946 232.256 29.1316 232.611 29.0852C233.075 29.0256 233.451 28.9808 233.739 28.951C234.031 28.9179 234.243 28.8632 234.376 28.7869C234.511 28.7107 234.579 28.5781 234.579 28.3892V28.3494C234.579 27.8589 234.445 27.4777 234.177 27.206C233.912 26.9342 233.509 26.7983 232.969 26.7983C232.408 26.7983 231.969 26.9209 231.651 27.1662C231.333 27.4115 231.109 27.6733 230.98 27.9517L229.866 27.554C230.065 27.09 230.33 26.7287 230.662 26.4702C230.997 26.2083 231.361 26.026 231.756 25.9233C232.153 25.8172 232.544 25.7642 232.929 25.7642C233.174 25.7642 233.456 25.794 233.774 25.8537C234.095 25.91 234.405 26.0277 234.704 26.2067C235.005 26.3857 235.256 26.6558 235.454 27.017C235.653 27.3783 235.753 27.8622 235.753 28.4688V33.5H234.579V32.4659H234.52C234.44 32.6316 234.308 32.8089 234.122 32.9979C233.936 33.1868 233.689 33.3475 233.381 33.4801C233.073 33.6127 232.697 33.679 232.253 33.679ZM232.432 32.625C232.896 32.625 233.287 32.5339 233.605 32.3516C233.926 32.1693 234.168 31.9339 234.331 31.6456C234.497 31.3572 234.579 31.054 234.579 30.7358V29.6619C234.53 29.7216 234.42 29.7763 234.251 29.826C234.086 29.8724 233.893 29.9138 233.675 29.9503C233.459 29.9834 233.249 30.0133 233.043 30.0398C232.841 30.063 232.677 30.0829 232.551 30.0994C232.246 30.1392 231.961 30.2038 231.696 30.2933C231.434 30.3795 231.222 30.5104 231.059 30.6861C230.9 30.8584 230.821 31.0937 230.821 31.392C230.821 31.7997 230.972 32.108 231.273 32.3168C231.578 32.5223 231.964 32.625 232.432 32.625ZM238.769 25.8636L240.599 28.9858L242.428 25.8636H243.781L241.315 29.6818L243.781 33.5H242.428L240.599 30.5369L238.769 33.5H237.417L239.843 29.6818L237.417 25.8636H238.769ZM248.243 33.6591C247.527 33.6591 246.91 33.4901 246.393 33.152C245.876 32.8139 245.478 32.3482 245.2 31.755C244.922 31.1617 244.782 30.4839 244.782 29.7216C244.782 28.946 244.925 28.2616 245.21 27.6683C245.498 27.0717 245.899 26.6061 246.413 26.2713C246.93 25.9332 247.533 25.7642 248.223 25.7642C248.76 25.7642 249.243 25.8636 249.674 26.0625C250.105 26.2614 250.458 26.5398 250.733 26.8977C251.008 27.2557 251.179 27.6733 251.245 28.1506H250.072C249.983 27.8026 249.784 27.4943 249.475 27.2259C249.171 26.9541 248.76 26.8182 248.243 26.8182C247.785 26.8182 247.384 26.9375 247.039 27.1761C246.698 27.4115 246.431 27.7446 246.239 28.1754C246.05 28.603 245.956 29.1051 245.956 29.6818C245.956 30.2718 246.048 30.7855 246.234 31.223C246.423 31.6605 246.688 32.0002 247.029 32.2422C247.374 32.4841 247.779 32.6051 248.243 32.6051C248.547 32.6051 248.824 32.5521 249.073 32.446C249.321 32.34 249.532 32.1875 249.704 31.9886C249.877 31.7898 249.999 31.5511 250.072 31.2727H251.245C251.179 31.7235 251.015 32.1295 250.753 32.4908C250.495 32.8487 250.152 33.1338 249.724 33.3459C249.3 33.5547 248.806 33.6591 248.243 33.6591ZM256.162 33.6591C255.426 33.6591 254.792 33.4967 254.258 33.1719C253.728 32.8438 253.319 32.3864 253.03 31.7997C252.745 31.2098 252.603 30.5237 252.603 29.7415C252.603 28.9593 252.745 28.2699 253.03 27.6733C253.319 27.0734 253.72 26.6061 254.233 26.2713C254.75 25.9332 255.354 25.7642 256.043 25.7642C256.441 25.7642 256.833 25.8305 257.221 25.9631C257.609 26.0956 257.962 26.3111 258.28 26.6094C258.598 26.9044 258.852 27.2955 259.041 27.7827C259.23 28.2699 259.324 28.8698 259.324 29.5824V30.0795H253.438V29.0653H258.131C258.131 28.6345 258.045 28.25 257.873 27.9119C257.703 27.5739 257.462 27.3071 257.147 27.1115C256.835 26.916 256.467 26.8182 256.043 26.8182C255.576 26.8182 255.171 26.9342 254.83 27.1662C254.492 27.3949 254.232 27.6932 254.049 28.0611C253.867 28.429 253.776 28.8234 253.776 29.2443V29.9205C253.776 30.4972 253.875 30.986 254.074 31.3871C254.276 31.7848 254.556 32.0881 254.914 32.2969C255.272 32.5024 255.688 32.6051 256.162 32.6051C256.471 32.6051 256.749 32.562 256.998 32.4759C257.249 32.3864 257.467 32.2538 257.649 32.0781C257.831 31.8991 257.972 31.6771 258.071 31.4119L259.205 31.7301C259.086 32.1146 258.885 32.4527 258.603 32.7443C258.322 33.0327 257.974 33.258 257.559 33.4205C257.145 33.5795 256.679 33.6591 256.162 33.6591ZM262.282 23.3182V33.5H261.109V23.3182H262.282ZM267.633 33.6591C266.897 33.6591 266.262 33.4967 265.729 33.1719C265.199 32.8438 264.789 32.3864 264.501 31.7997C264.216 31.2098 264.073 30.5237 264.073 29.7415C264.073 28.9593 264.216 28.2699 264.501 27.6733C264.789 27.0734 265.19 26.6061 265.704 26.2713C266.221 25.9332 266.824 25.7642 267.514 25.7642C267.911 25.7642 268.304 25.8305 268.692 25.9631C269.08 26.0956 269.433 26.3111 269.751 26.6094C270.069 26.9044 270.323 27.2955 270.512 27.7827C270.7 28.2699 270.795 28.8698 270.795 29.5824V30.0795H264.909V29.0653H269.602C269.602 28.6345 269.516 28.25 269.343 27.9119C269.174 27.5739 268.932 27.3071 268.617 27.1115C268.306 26.916 267.938 26.8182 267.514 26.8182C267.046 26.8182 266.642 26.9342 266.301 27.1662C265.963 27.3949 265.702 27.6932 265.52 28.0611C265.338 28.429 265.247 28.8234 265.247 29.2443V29.9205C265.247 30.4972 265.346 30.986 265.545 31.3871C265.747 31.7848 266.027 32.0881 266.385 32.2969C266.743 32.5024 267.159 32.6051 267.633 32.6051C267.941 32.6051 268.22 32.562 268.468 32.4759C268.72 32.3864 268.937 32.2538 269.119 32.0781C269.302 31.8991 269.443 31.6771 269.542 31.4119L270.676 31.7301C270.556 32.1146 270.356 32.4527 270.074 32.7443C269.792 33.0327 269.444 33.258 269.03 33.4205C268.616 33.5795 268.15 33.6591 267.633 33.6591ZM272.58 33.5V25.8636H273.713V27.017H273.793C273.932 26.6392 274.184 26.3326 274.548 26.0973C274.913 25.862 275.324 25.7443 275.781 25.7443C275.868 25.7443 275.975 25.746 276.105 25.7493C276.234 25.7526 276.332 25.7576 276.398 25.7642V26.9574C276.358 26.9474 276.267 26.9325 276.124 26.9126C275.985 26.8894 275.838 26.8778 275.682 26.8778C275.311 26.8778 274.979 26.9557 274.688 27.1115C274.399 27.264 274.171 27.4761 274.002 27.7479C273.836 28.0163 273.753 28.3229 273.753 28.6676V33.5H272.58ZM280.036 33.679C279.552 33.679 279.113 33.5878 278.718 33.4055C278.324 33.2199 278.011 32.9531 277.779 32.6051C277.547 32.2538 277.431 31.8295 277.431 31.3324C277.431 30.8949 277.517 30.5402 277.689 30.2685C277.862 29.9934 278.092 29.7779 278.38 29.6222C278.669 29.4664 278.987 29.3504 279.335 29.2741C279.686 29.1946 280.039 29.1316 280.394 29.0852C280.858 29.0256 281.234 28.9808 281.522 28.951C281.814 28.9179 282.026 28.8632 282.159 28.7869C282.295 28.7107 282.363 28.5781 282.363 28.3892V28.3494C282.363 27.8589 282.228 27.4777 281.96 27.206C281.695 26.9342 281.292 26.7983 280.752 26.7983C280.192 26.7983 279.752 26.9209 279.434 27.1662C279.116 27.4115 278.892 27.6733 278.763 27.9517L277.65 27.554C277.848 27.09 278.114 26.7287 278.445 26.4702C278.78 26.2083 279.144 26.026 279.539 25.9233C279.936 25.8172 280.328 25.7642 280.712 25.7642C280.957 25.7642 281.239 25.794 281.557 25.8537C281.879 25.91 282.189 26.0277 282.487 26.2067C282.788 26.3857 283.039 26.6558 283.238 27.017C283.436 27.3783 283.536 27.8622 283.536 28.4688V33.5H282.363V32.4659H282.303C282.223 32.6316 282.091 32.8089 281.905 32.9979C281.72 33.1868 281.473 33.3475 281.164 33.4801C280.856 33.6127 280.48 33.679 280.036 33.679ZM280.215 32.625C280.679 32.625 281.07 32.5339 281.388 32.3516C281.71 32.1693 281.952 31.9339 282.114 31.6456C282.28 31.3572 282.363 31.054 282.363 30.7358V29.6619C282.313 29.7216 282.203 29.7763 282.034 29.826C281.869 29.8724 281.676 29.9138 281.458 29.9503C281.242 29.9834 281.032 30.0133 280.826 30.0398C280.624 30.063 280.46 30.0829 280.334 30.0994C280.029 30.1392 279.744 30.2038 279.479 30.2933C279.217 30.3795 279.005 30.5104 278.843 30.6861C278.684 30.8584 278.604 31.0937 278.604 31.392C278.604 31.7997 278.755 32.108 279.056 32.3168C279.361 32.5223 279.748 32.625 280.215 32.625ZM288.998 25.8636V26.858H285.041V25.8636H288.998ZM286.194 24.0341H287.368V31.3125C287.368 31.6439 287.416 31.8925 287.512 32.0582C287.611 32.2206 287.737 32.33 287.89 32.3864C288.046 32.4394 288.21 32.4659 288.382 32.4659C288.511 32.4659 288.617 32.4593 288.7 32.446C288.783 32.4295 288.849 32.4162 288.899 32.4062L289.138 33.4602C289.058 33.4901 288.947 33.5199 288.805 33.5497C288.662 33.5829 288.481 33.5994 288.263 33.5994C287.931 33.5994 287.606 33.5282 287.288 33.3857C286.973 33.2431 286.711 33.026 286.503 32.7344C286.297 32.4427 286.194 32.0748 286.194 31.6307V24.0341ZM293.883 33.6591C293.147 33.6591 292.512 33.4967 291.979 33.1719C291.449 32.8438 291.039 32.3864 290.751 31.7997C290.466 31.2098 290.323 30.5237 290.323 29.7415C290.323 28.9593 290.466 28.2699 290.751 27.6733C291.039 27.0734 291.44 26.6061 291.954 26.2713C292.471 25.9332 293.074 25.7642 293.764 25.7642C294.161 25.7642 294.554 25.8305 294.942 25.9631C295.33 26.0956 295.683 26.3111 296.001 26.6094C296.319 26.9044 296.573 27.2955 296.762 27.7827C296.95 28.2699 297.045 28.8698 297.045 29.5824V30.0795H291.159V29.0653H295.852C295.852 28.6345 295.766 28.25 295.593 27.9119C295.424 27.5739 295.182 27.3071 294.867 27.1115C294.556 26.916 294.188 26.8182 293.764 26.8182C293.296 26.8182 292.892 26.9342 292.551 27.1662C292.213 27.3949 291.952 27.6932 291.77 28.0611C291.588 28.429 291.497 28.8234 291.497 29.2443V29.9205C291.497 30.4972 291.596 30.986 291.795 31.3871C291.997 31.7848 292.277 32.0881 292.635 32.2969C292.993 32.5024 293.409 32.6051 293.883 32.6051C294.191 32.6051 294.47 32.562 294.718 32.4759C294.97 32.3864 295.187 32.2538 295.369 32.0781C295.552 31.8991 295.693 31.6771 295.792 31.4119L296.926 31.7301C296.806 32.1146 296.606 32.4527 296.324 32.7443C296.042 33.0327 295.694 33.258 295.28 33.4205C294.866 33.5795 294.4 33.6591 293.883 33.6591ZM299.685 33.5795C299.44 33.5795 299.229 33.4917 299.053 33.3161C298.878 33.1404 298.79 32.9299 298.79 32.6847C298.79 32.4394 298.878 32.2289 299.053 32.0533C299.229 31.8776 299.44 31.7898 299.685 31.7898C299.93 31.7898 300.141 31.8776 300.316 32.0533C300.492 32.2289 300.58 32.4394 300.58 32.6847C300.58 32.8471 300.538 32.9962 300.455 33.1321C300.376 33.268 300.268 33.3774 300.132 33.4602C300 33.5398 299.851 33.5795 299.685 33.5795ZM305.787 33.6591C305.072 33.6591 304.455 33.4901 303.938 33.152C303.421 32.8139 303.023 32.3482 302.745 31.755C302.466 31.1617 302.327 30.4839 302.327 29.7216C302.327 28.946 302.47 28.2616 302.755 27.6683C303.043 27.0717 303.444 26.6061 303.958 26.2713C304.475 25.9332 305.078 25.7642 305.768 25.7642C306.305 25.7642 306.788 25.8636 307.219 26.0625C307.65 26.2614 308.003 26.5398 308.278 26.8977C308.553 27.2557 308.724 27.6733 308.79 28.1506H307.617C307.528 27.8026 307.329 27.4943 307.02 27.2259C306.715 26.9541 306.305 26.8182 305.787 26.8182C305.33 26.8182 304.929 26.9375 304.584 27.1761C304.243 27.4115 303.976 27.7446 303.784 28.1754C303.595 28.603 303.501 29.1051 303.501 29.6818C303.501 30.2718 303.593 30.7855 303.779 31.223C303.968 31.6605 304.233 32.0002 304.574 32.2422C304.919 32.4841 305.323 32.6051 305.787 32.6051C306.092 32.6051 306.369 32.5521 306.618 32.446C306.866 32.34 307.077 32.1875 307.249 31.9886C307.421 31.7898 307.544 31.5511 307.617 31.2727H308.79C308.724 31.7235 308.56 32.1295 308.298 32.4908C308.04 32.8487 307.697 33.1338 307.269 33.3459C306.845 33.5547 306.351 33.6591 305.787 33.6591ZM313.608 33.6591C312.918 33.6591 312.314 33.495 311.793 33.1669C311.276 32.8388 310.872 32.3797 310.58 31.7898C310.292 31.1998 310.148 30.5104 310.148 29.7216C310.148 28.9261 310.292 28.2318 310.58 27.6385C310.872 27.0452 311.276 26.5845 311.793 26.2564C312.314 25.9283 312.918 25.7642 313.608 25.7642C314.297 25.7642 314.9 25.9283 315.417 26.2564C315.938 26.5845 316.342 27.0452 316.631 27.6385C316.922 28.2318 317.068 28.9261 317.068 29.7216C317.068 30.5104 316.922 31.1998 316.631 31.7898C316.342 32.3797 315.938 32.8388 315.417 33.1669C314.9 33.495 314.297 33.6591 313.608 33.6591ZM313.608 32.6051C314.131 32.6051 314.562 32.4709 314.9 32.2024C315.238 31.9339 315.489 31.581 315.651 31.1435C315.814 30.706 315.895 30.232 315.895 29.7216C315.895 29.2112 315.814 28.7356 315.651 28.2947C315.489 27.8539 315.238 27.4976 314.9 27.2259C314.562 26.9541 314.131 26.8182 313.608 26.8182C313.084 26.8182 312.653 26.9541 312.315 27.2259C311.977 27.4976 311.727 27.8539 311.564 28.2947C311.402 28.7356 311.321 29.2112 311.321 29.7216C311.321 30.232 311.402 30.706 311.564 31.1435C311.727 31.581 311.977 31.9339 312.315 32.2024C312.653 32.4709 313.084 32.6051 313.608 32.6051ZM318.859 33.5V25.8636H319.993V27.0568H320.092C320.251 26.6491 320.508 26.3326 320.863 26.1072C321.217 25.8786 321.643 25.7642 322.14 25.7642C322.644 25.7642 323.063 25.8786 323.398 26.1072C323.736 26.3326 324 26.6491 324.189 27.0568H324.268C324.464 26.6624 324.757 26.3492 325.148 26.1172C325.539 25.8819 326.008 25.7642 326.555 25.7642C327.238 25.7642 327.796 25.978 328.23 26.4055C328.665 26.8298 328.882 27.491 328.882 28.3892V33.5H327.708V28.3892C327.708 27.8258 327.554 27.4231 327.246 27.1811C326.938 26.9392 326.575 26.8182 326.157 26.8182C325.62 26.8182 325.204 26.9806 324.909 27.3054C324.614 27.6269 324.467 28.0346 324.467 28.5284V33.5H323.274V28.2699C323.274 27.8357 323.133 27.486 322.851 27.2209C322.569 26.9524 322.207 26.8182 321.762 26.8182C321.458 26.8182 321.172 26.8994 320.907 27.0618C320.645 27.2242 320.433 27.4496 320.271 27.7379C320.112 28.023 320.032 28.3527 320.032 28.7273V33.5H318.859ZM334.626 22.8409L331.345 35.0312H330.271L333.553 22.8409H334.626ZM336.312 33.5795C336.067 33.5795 335.856 33.4917 335.68 33.3161C335.505 33.1404 335.417 32.9299 335.417 32.6847C335.417 32.4394 335.505 32.2289 335.68 32.0533C335.856 31.8776 336.067 31.7898 336.312 31.7898C336.557 31.7898 336.768 31.8776 336.943 32.0533C337.119 32.2289 337.207 32.4394 337.207 32.6847C337.207 32.8471 337.165 32.9962 337.082 33.1321C337.003 33.268 336.895 33.3774 336.759 33.4602C336.627 33.5398 336.478 33.5795 336.312 33.5795ZM340.167 33.5795C339.922 33.5795 339.712 33.4917 339.536 33.3161C339.36 33.1404 339.272 32.9299 339.272 32.6847C339.272 32.4394 339.36 32.2289 339.536 32.0533C339.712 31.8776 339.922 31.7898 340.167 31.7898C340.413 31.7898 340.623 31.8776 340.799 32.0533C340.974 32.2289 341.062 32.4394 341.062 32.6847C341.062 32.8471 341.021 32.9962 340.938 33.1321C340.858 33.268 340.751 33.3774 340.615 33.4602C340.482 33.5398 340.333 33.5795 340.167 33.5795ZM344.023 33.5795C343.777 33.5795 343.567 33.4917 343.391 33.3161C343.216 33.1404 343.128 32.9299 343.128 32.6847C343.128 32.4394 343.216 32.2289 343.391 32.0533C343.567 31.8776 343.777 31.7898 344.023 31.7898C344.268 31.7898 344.478 31.8776 344.654 32.0533C344.83 32.2289 344.918 32.4394 344.918 32.6847C344.918 32.8471 344.876 32.9962 344.793 33.1321C344.714 33.268 344.606 33.3774 344.47 33.4602C344.338 33.5398 344.188 33.5795 344.023 33.5795ZM347.297 30.6364V30.5767C347.303 29.9437 347.369 29.4399 347.495 29.0653C347.621 28.6908 347.8 28.3875 348.032 28.1555C348.264 27.9235 348.543 27.7098 348.868 27.5142C349.063 27.3949 349.239 27.254 349.395 27.0916C349.55 26.9259 349.673 26.7353 349.762 26.5199C349.855 26.3045 349.902 26.0658 349.902 25.804C349.902 25.4792 349.825 25.1974 349.673 24.9588C349.52 24.7202 349.317 24.5362 349.061 24.407C348.806 24.2777 348.523 24.2131 348.211 24.2131C347.94 24.2131 347.678 24.2694 347.426 24.3821C347.174 24.4948 346.963 24.6721 346.794 24.9141C346.625 25.156 346.528 25.4725 346.501 25.8636H345.248C345.275 25.3002 345.421 24.8179 345.686 24.4169C345.954 24.0159 346.307 23.7093 346.745 23.4972C347.185 23.285 347.674 23.179 348.211 23.179C348.795 23.179 349.302 23.295 349.733 23.527C350.167 23.759 350.502 24.0772 350.737 24.4815C350.975 24.8859 351.095 25.3466 351.095 25.8636C351.095 26.2282 351.038 26.558 350.926 26.853C350.816 27.148 350.657 27.4115 350.449 27.6435C350.243 27.8755 349.994 28.081 349.703 28.2599C349.411 28.4422 349.177 28.6345 349.002 28.8366C348.826 29.0355 348.699 29.2725 348.619 29.5476C348.539 29.8227 348.496 30.1657 348.49 30.5767V30.6364H347.297ZM347.933 33.5795C347.688 33.5795 347.477 33.4917 347.301 33.3161C347.126 33.1404 347.038 32.9299 347.038 32.6847C347.038 32.4394 347.126 32.2289 347.301 32.0533C347.477 31.8776 347.688 31.7898 347.933 31.7898C348.178 31.7898 348.389 31.8776 348.564 32.0533C348.74 32.2289 348.828 32.4394 348.828 32.6847C348.828 32.8471 348.786 32.9962 348.703 33.1321C348.624 33.268 348.516 33.3774 348.38 33.4602C348.248 33.5398 348.099 33.5795 347.933 33.5795ZM361.213 26.5H359.98C359.907 26.1454 359.78 25.8338 359.597 25.5653C359.419 25.2969 359.2 25.0715 358.941 24.8892C358.686 24.7036 358.403 24.5644 358.091 24.4716C357.78 24.3788 357.455 24.3324 357.117 24.3324C356.5 24.3324 355.942 24.4882 355.441 24.7997C354.944 25.1113 354.548 25.5703 354.253 26.1768C353.961 26.7834 353.816 27.5275 353.816 28.4091C353.816 29.2907 353.961 30.0348 354.253 30.6413C354.548 31.2479 354.944 31.7069 355.441 32.0185C355.942 32.33 356.5 32.4858 357.117 32.4858C357.455 32.4858 357.78 32.4394 358.091 32.3466C358.403 32.2538 358.686 32.1162 358.941 31.9339C359.2 31.7483 359.419 31.5213 359.597 31.2528C359.78 30.9811 359.907 30.6695 359.98 30.3182H361.213C361.12 30.8385 360.951 31.3042 360.706 31.7152C360.461 32.1262 360.156 32.4759 359.791 32.7642C359.427 33.0492 359.017 33.2663 358.563 33.4155C358.113 33.5646 357.63 33.6392 357.117 33.6392C356.248 33.6392 355.476 33.4271 354.8 33.0028C354.124 32.5786 353.592 31.9754 353.204 31.1932C352.816 30.411 352.622 29.483 352.622 28.4091C352.622 27.3352 352.816 26.4072 353.204 25.625C353.592 24.8428 354.124 24.2396 354.8 23.8153C355.476 23.3911 356.248 23.179 357.117 23.179C357.63 23.179 358.113 23.2536 358.563 23.4027C359.017 23.5518 359.427 23.7706 359.791 24.0589C360.156 24.344 360.461 24.692 360.706 25.103C360.951 25.5107 361.12 25.9763 361.213 26.5ZM364.22 23.3182V33.5H363.047V23.3182H364.22ZM368.616 33.679C368.132 33.679 367.693 33.5878 367.298 33.4055C366.904 33.2199 366.591 32.9531 366.359 32.6051C366.127 32.2538 366.011 31.8295 366.011 31.3324C366.011 30.8949 366.097 30.5402 366.269 30.2685C366.442 29.9934 366.672 29.7779 366.96 29.6222C367.249 29.4664 367.567 29.3504 367.915 29.2741C368.266 29.1946 368.619 29.1316 368.974 29.0852C369.438 29.0256 369.814 28.9808 370.102 28.951C370.394 28.9179 370.606 28.8632 370.739 28.7869C370.875 28.7107 370.943 28.5781 370.943 28.3892V28.3494C370.943 27.8589 370.808 27.4777 370.54 27.206C370.275 26.9342 369.872 26.7983 369.332 26.7983C368.772 26.7983 368.333 26.9209 368.014 27.1662C367.696 27.4115 367.472 27.6733 367.343 27.9517L366.23 27.554C366.428 27.09 366.694 26.7287 367.025 26.4702C367.36 26.2083 367.724 26.026 368.119 25.9233C368.517 25.8172 368.908 25.7642 369.292 25.7642C369.537 25.7642 369.819 25.794 370.137 25.8537C370.459 25.91 370.769 26.0277 371.067 26.2067C371.369 26.3857 371.619 26.6558 371.818 27.017C372.017 27.3783 372.116 27.8622 372.116 28.4688V33.5H370.943V32.4659H370.883C370.803 32.6316 370.671 32.8089 370.485 32.9979C370.3 33.1868 370.053 33.3475 369.744 33.4801C369.436 33.6127 369.06 33.679 368.616 33.679ZM368.795 32.625C369.259 32.625 369.65 32.5339 369.968 32.3516C370.29 32.1693 370.532 31.9339 370.694 31.6456C370.86 31.3572 370.943 31.054 370.943 30.7358V29.6619C370.893 29.7216 370.784 29.7763 370.615 29.826C370.449 29.8724 370.257 29.9138 370.038 29.9503C369.822 29.9834 369.612 30.0133 369.406 30.0398C369.204 30.063 369.04 30.0829 368.914 30.0994C368.609 30.1392 368.324 30.2038 368.059 30.2933C367.797 30.3795 367.585 30.5104 367.423 30.6861C367.264 30.8584 367.184 31.0937 367.184 31.392C367.184 31.7997 367.335 32.108 367.637 32.3168C367.941 32.5223 368.328 32.625 368.795 32.625ZM379.667 27.5739L378.613 27.8722C378.546 27.6965 378.449 27.5258 378.319 27.3601C378.193 27.1911 378.021 27.0518 377.802 26.9425C377.583 26.8331 377.303 26.7784 376.962 26.7784C376.495 26.7784 376.105 26.8861 375.794 27.1016C375.485 27.3137 375.331 27.5838 375.331 27.9119C375.331 28.2036 375.437 28.4339 375.65 28.603C375.862 28.772 376.193 28.9129 376.644 29.0256L377.777 29.304C378.46 29.4697 378.969 29.7232 379.304 30.0646C379.638 30.4027 379.806 30.8385 379.806 31.3722C379.806 31.8097 379.68 32.2008 379.428 32.5455C379.179 32.8902 378.831 33.1619 378.384 33.3608C377.936 33.5597 377.416 33.6591 376.823 33.6591C376.044 33.6591 375.399 33.4901 374.889 33.152C374.378 32.8139 374.055 32.3201 373.919 31.6705L375.033 31.392C375.139 31.803 375.34 32.1113 375.635 32.3168C375.933 32.5223 376.322 32.625 376.803 32.625C377.35 32.625 377.784 32.509 378.105 32.277C378.43 32.0417 378.593 31.7599 378.593 31.4318C378.593 31.1667 378.5 30.9446 378.314 30.7656C378.129 30.5833 377.844 30.4474 377.459 30.358L376.186 30.0597C375.487 29.8939 374.973 29.6371 374.645 29.2891C374.32 28.9377 374.158 28.4986 374.158 27.9716C374.158 27.5407 374.279 27.1596 374.521 26.8281C374.766 26.4967 375.099 26.2365 375.52 26.0476C375.944 25.8587 376.425 25.7642 376.962 25.7642C377.718 25.7642 378.311 25.9299 378.742 26.2614C379.176 26.5928 379.484 27.0303 379.667 27.5739ZM386.981 27.5739L385.927 27.8722C385.861 27.6965 385.763 27.5258 385.634 27.3601C385.508 27.1911 385.335 27.0518 385.117 26.9425C384.898 26.8331 384.618 26.7784 384.276 26.7784C383.809 26.7784 383.42 26.8861 383.108 27.1016C382.8 27.3137 382.646 27.5838 382.646 27.9119C382.646 28.2036 382.752 28.4339 382.964 28.603C383.176 28.772 383.508 28.9129 383.958 29.0256L385.092 29.304C385.775 29.4697 386.283 29.7232 386.618 30.0646C386.953 30.4027 387.12 30.8385 387.12 31.3722C387.12 31.8097 386.994 32.2008 386.742 32.5455C386.494 32.8902 386.146 33.1619 385.698 33.3608C385.251 33.5597 384.731 33.6591 384.137 33.6591C383.358 33.6591 382.714 33.4901 382.203 33.152C381.693 32.8139 381.37 32.3201 381.234 31.6705L382.347 31.392C382.454 31.803 382.654 32.1113 382.949 32.3168C383.247 32.5223 383.637 32.625 384.117 32.625C384.664 32.625 385.098 32.509 385.42 32.277C385.745 32.0417 385.907 31.7599 385.907 31.4318C385.907 31.1667 385.814 30.9446 385.629 30.7656C385.443 30.5833 385.158 30.4474 384.774 30.358L383.501 30.0597C382.802 29.8939 382.288 29.6371 381.96 29.2891C381.635 28.9377 381.472 28.4986 381.472 27.9716C381.472 27.5407 381.593 27.1596 381.835 26.8281C382.081 26.4967 382.414 26.2365 382.835 26.0476C383.259 25.8587 383.74 25.7642 384.276 25.7642C385.032 25.7642 385.625 25.9299 386.056 26.2614C386.49 26.5928 386.799 27.0303 386.981 27.5739ZM390.278 23.3182V33.5H389.045V23.3182H390.278ZM395.893 33.5H392.751V23.3182H396.032C397.019 23.3182 397.865 23.522 398.567 23.9297C399.27 24.334 399.809 24.9157 400.183 25.6747C400.558 26.4304 400.745 27.3352 400.745 28.3892C400.745 29.4498 400.556 30.3629 400.178 31.1286C399.8 31.8909 399.25 32.4775 398.528 32.8885C397.805 33.2962 396.927 33.5 395.893 33.5ZM393.983 32.4062H395.813C396.655 32.4062 397.353 32.2438 397.906 31.919C398.46 31.5942 398.872 31.1319 399.144 30.532C399.416 29.9321 399.552 29.2178 399.552 28.3892C399.552 27.5672 399.417 26.8596 399.149 26.2663C398.881 25.6697 398.479 25.2124 397.946 24.8942C397.412 24.5727 396.748 24.4119 395.952 24.4119H393.983V32.4062ZM403.131 27.4744V26.4006H409.256V27.4744H403.131ZM403.131 30.4176V29.3438H409.256V30.4176H403.131Z" fill="white" fill-opacity="0.5"/>
<path d="M415.442 23.3182V33.5H414.209V24.6108H414.15L411.664 26.2614V25.0085L414.209 23.3182H415.442ZM418.689 33.5L423.243 24.4915V24.4119H417.993V23.3182H424.515V24.4716L419.981 33.5H418.689ZM429.414 33.6392C428.83 33.6392 428.305 33.5232 427.838 33.2912C427.37 33.0592 426.996 32.741 426.714 32.3366C426.432 31.9323 426.278 31.4716 426.252 30.9545H427.445C427.491 31.4152 427.7 31.7964 428.071 32.098C428.446 32.3963 428.893 32.5455 429.414 32.5455C429.831 32.5455 430.202 32.4477 430.527 32.2521C430.855 32.0566 431.112 31.7881 431.298 31.4467C431.487 31.102 431.581 30.7126 431.581 30.2784C431.581 29.8343 431.483 29.4382 431.288 29.0902C431.096 28.7389 430.83 28.4621 430.492 28.2599C430.154 28.0578 429.768 27.955 429.334 27.9517C429.022 27.9484 428.703 27.9964 428.374 28.0959C428.046 28.192 427.776 28.3163 427.564 28.4688L426.411 28.3295L427.027 23.3182H432.317V24.4119H428.061L427.703 27.4148H427.763C427.972 27.2491 428.234 27.1115 428.548 27.0021C428.863 26.8928 429.191 26.8381 429.533 26.8381C430.156 26.8381 430.711 26.9872 431.198 27.2855C431.689 27.5805 432.073 27.9848 432.352 28.4986C432.633 29.0123 432.774 29.599 432.774 30.2585C432.774 30.9081 432.628 31.4882 432.337 31.9986C432.048 32.5057 431.651 32.9067 431.144 33.2017C430.637 33.4934 430.06 33.6392 429.414 33.6392ZM438.329 23.3182V33.5H437.096V24.6108H437.036L434.55 26.2614V25.0085L437.096 23.3182H438.329ZM444.578 33.6392C443.829 33.6392 443.191 33.4354 442.664 33.0277C442.137 32.6167 441.734 32.0218 441.456 31.2429C441.178 30.4607 441.038 29.5161 441.038 28.4091C441.038 27.3087 441.178 26.3691 441.456 25.5902C441.738 24.808 442.142 24.2114 442.669 23.8004C443.199 23.3861 443.836 23.179 444.578 23.179C445.321 23.179 445.955 23.3861 446.482 23.8004C447.013 24.2114 447.417 24.808 447.695 25.5902C447.977 26.3691 448.118 27.3087 448.118 28.4091C448.118 29.5161 447.979 30.4607 447.7 31.2429C447.422 32.0218 447.019 32.6167 446.492 33.0277C445.965 33.4354 445.327 33.6392 444.578 33.6392ZM444.578 32.5455C445.321 32.5455 445.897 32.1875 446.308 31.4716C446.719 30.7557 446.925 29.7348 446.925 28.4091C446.925 27.5275 446.83 26.7768 446.641 26.157C446.456 25.5372 446.187 25.0649 445.836 24.7401C445.488 24.4152 445.069 24.2528 444.578 24.2528C443.842 24.2528 443.267 24.6158 442.853 25.3416C442.439 26.0642 442.232 27.0866 442.232 28.4091C442.232 29.2907 442.324 30.0398 442.51 30.6562C442.696 31.2727 442.962 31.7417 443.31 32.0632C443.662 32.3847 444.084 32.5455 444.578 32.5455ZM450.052 33.5L454.606 24.4915V24.4119H449.356V23.3182H455.879V24.4716L451.344 33.5H450.052ZM457.732 33.5V32.6051L461.093 28.9261C461.487 28.4953 461.812 28.1207 462.067 27.8026C462.322 27.4811 462.511 27.1795 462.634 26.8977C462.76 26.6127 462.823 26.3144 462.823 26.0028C462.823 25.6449 462.736 25.335 462.564 25.0732C462.395 24.8113 462.163 24.6091 461.868 24.4666C461.573 24.3241 461.242 24.2528 460.874 24.2528C460.483 24.2528 460.141 24.334 459.85 24.4964C459.561 24.6555 459.338 24.8793 459.178 25.1676C459.023 25.456 458.945 25.794 458.945 26.1818H457.771C457.771 25.5852 457.909 25.0616 458.184 24.6108C458.459 24.16 458.834 23.8087 459.308 23.5568C459.785 23.3049 460.32 23.179 460.914 23.179C461.51 23.179 462.039 23.3049 462.499 23.5568C462.96 23.8087 463.321 24.1484 463.583 24.576C463.845 25.0036 463.976 25.4792 463.976 26.0028C463.976 26.3774 463.908 26.7436 463.772 27.1016C463.64 27.4562 463.408 27.8523 463.076 28.2898C462.748 28.724 462.292 29.2543 461.709 29.8807L459.422 32.3267V32.4062H464.155V33.5H457.732Z" fill="white"/>
<circle cx="561" cy="28" r="8" fill="white" fill-opacity="0.15"/>
<circle cx="585" cy="28" r="8" fill="white" fill-opacity="0.15"/>
<circle cx="609" cy="28" r="8" fill="white" fill-opacity="0.15"/>
<rect y="56" width="633" height="295" fill="url(#paint0_linear_2_35)"/>
</g>
<rect x="0.5" y="0.5" width="632" height="350" rx="7.5" stroke="url(#paint1_linear_2_35)"/>
<defs>
<linearGradient id="paint0_linear_2_35" x1="316.5" y1="56" x2="316.5" y2="351" gradientUnits="userSpaceOnUse">
<stop stop-color="white" stop-opacity="0.03"/>
<stop offset="1" stop-color="white" stop-opacity="0"/>
</linearGradient>
<linearGradient id="paint1_linear_2_35" x1="366" y1="-380" x2="366" y2="265" gradientUnits="userSpaceOnUse">
<stop stop-color="white" stop-opacity="0.5"/>
<stop offset="1" stop-color="white" stop-opacity="0"/>
</linearGradient>
<clipPath id="clip0_2_35">
<rect width="633" height="351" rx="8" fill="white"/>
</clipPath>
</defs>
</svg>
